<?xml version="1.0" encoding="UTF-8" standalone="no"?><!DOCTYPE svg PUBLIC "-//W3C//DTD SVG 1.1//EN" "http://www.w3.org/Graphics/SVG/1.1/DTD/svg11.dtd"><svg width="100%" height="100%" viewBox="0 0 106 132" version="1.1" xmlns="http://www.w3.org/2000/svg" xmlns:xlink="http://www.w3.org/1999/xlink" xml:space="preserve" xmlns:serif="http://www.serif.com/" style="fill-rule:evenodd;clip-rule:evenodd;stroke-linejoin:round;stroke-miterlimit:2;"><path d="M42.711,128.618l-38.921,-24.768c-3.537,-2.251 -4.8,-6.811 -2.925,-10.56c8.679,-17.359 32.308,-64.617 44.384,-88.768c1.385,-2.771 4.218,-4.522 7.316,-4.522c3.099,0 5.931,1.751 7.317,4.522l44.384,88.768l-61.555,35.328Z" style="fill:#38a169;"/><path d="M59.652,38.942c1.652,-3.303 5.027,-5.389 8.72,-5.389c3.693,0 7.069,2.086 8.72,5.389c10.624,21.248 27.174,54.348 27.174,54.348c1.875,3.749 0.612,8.309 -2.925,10.56c-9.483,6.034 -27.634,17.585 -38.921,24.768c-6.013,3.826 -13.697,3.826 -19.709,0l-21.163,-13.468c0,0 24.558,-49.116 38.104,-76.208Z" style="fill:#48bb78;"/></svg>